<svg width="162" height="20" viewBox="0 0 162 20" fill="none" xmlns="http://www.w3.org/2000/svg">
<path d="M6.73729 4.15254C7.79661 4.15254 8.75706 4.39972 9.61864 4.89407C10.4944 5.37429 11.1794 6.05932 11.6737 6.94915C12.1681 7.82486 12.4153 8.84887 12.4153 10.0212C12.4153 11.1935 12.1681 12.2246 11.6737 13.1144C11.1794 13.9901 10.4944 14.6751 9.61864 15.1695C8.75706 15.6497 7.79661 15.8898 6.73729 15.8898C5.16949 15.8898 3.97599 15.3955 3.15678 14.4068V15.7203H0V0H3.30508V5.52966C4.13842 4.61158 5.28249 4.15254 6.73729 4.15254ZM6.16525 13.178C7.01271 13.178 7.7048 12.8955 8.24153 12.3305C8.79237 11.7514 9.0678 10.9816 9.0678 10.0212C9.0678 9.06073 8.79237 8.29802 8.24153 7.73305C7.7048 7.15396 7.01271 6.86441 6.16525 6.86441C5.3178 6.86441 4.61864 7.15396 4.0678 7.73305C3.53107 8.29802 3.26271 9.06073 3.26271 10.0212C3.26271 10.9816 3.53107 11.7514 4.0678 12.3305C4.61864 12.8955 5.3178 13.178 6.16525 13.178Z" fill="#1877F2"/>
<path d="M19.039 4.15254C20.8045 4.15254 22.1605 4.57627 23.1068 5.42373C24.0531 6.25706 24.5263 7.52119 24.5263 9.2161V15.7203H21.4331V14.3008C20.8116 15.3602 19.6534 15.8898 17.9585 15.8898C17.0828 15.8898 16.3201 15.7415 15.6704 15.4449C15.0348 15.1483 14.5475 14.7387 14.2085 14.2161C13.8695 13.6935 13.7 13.1003 13.7 12.4364C13.7 11.3771 14.0955 10.5438 14.8865 9.93644C15.6915 9.3291 16.9274 9.02542 18.5941 9.02542H21.2212C21.2212 8.30508 21.0023 7.75424 20.5644 7.37288C20.1266 6.9774 19.4698 6.77966 18.5941 6.77966C17.9867 6.77966 17.3865 6.87853 16.7932 7.07627C16.2141 7.25989 15.7198 7.51412 15.3102 7.83898L14.1237 5.52966C14.7452 5.09181 15.4867 4.75282 16.3483 4.51271C17.224 4.2726 18.1209 4.15254 19.039 4.15254ZM18.7848 13.6653C19.3497 13.6653 19.8511 13.5381 20.289 13.2839C20.7268 13.0155 21.0376 12.6271 21.2212 12.1186V10.9534H18.9543C17.5983 10.9534 16.9204 11.3983 16.9204 12.2881C16.9204 12.7119 17.0828 13.0508 17.4076 13.3051C17.7466 13.5452 18.2057 13.6653 18.7848 13.6653Z" fill="#1877F2"/>
<path d="M34.8692 15.1695C34.5444 15.4096 34.1418 15.5932 33.6616 15.7203C33.1955 15.8333 32.7012 15.8898 32.1786 15.8898C30.8226 15.8898 29.7704 15.5438 29.0218 14.8517C28.2873 14.1596 27.9201 13.1427 27.9201 11.8008V7.11864H26.1616V4.57627H27.9201V1.80085H31.2252V4.57627H34.0642V7.11864H31.2252V11.7585C31.2252 12.2387 31.3452 12.613 31.5853 12.8814C31.8396 13.1356 32.1927 13.2627 32.6447 13.2627C33.1673 13.2627 33.6122 13.1215 33.9794 12.839L34.8692 15.1695Z" fill="#1877F2"/>
<path d="M47.983 0V15.7203H44.8262V14.4068C44.007 15.3955 42.8206 15.8898 41.2669 15.8898C40.1934 15.8898 39.2189 15.6497 38.3432 15.1695C37.4816 14.6893 36.8036 14.0042 36.3093 13.1144C35.8149 12.2246 35.5677 11.1935 35.5677 10.0212C35.5677 8.84887 35.8149 7.8178 36.3093 6.92797C36.8036 6.03814 37.4816 5.35311 38.3432 4.87288C39.2189 4.39266 40.1934 4.15254 41.2669 4.15254C42.7217 4.15254 43.8587 4.61158 44.6779 5.52966V0H47.983ZM41.8389 13.178C42.6723 13.178 43.3643 12.8955 43.9152 12.3305C44.466 11.7514 44.7415 10.9816 44.7415 10.0212C44.7415 9.06073 44.466 8.29802 43.9152 7.73305C43.3643 7.15396 42.6723 6.86441 41.8389 6.86441C40.9915 6.86441 40.2923 7.15396 39.7415 7.73305C39.1906 8.29802 38.9152 9.06073 38.9152 10.0212C38.9152 10.9816 39.1906 11.7514 39.7415 12.3305C40.2923 12.8955 40.9915 13.178 41.8389 13.178Z" fill="#1877F2"/>
<path d="M56.4657 15.8898C55.2651 15.8898 54.1846 15.6427 53.2241 15.1483C52.2778 14.6398 51.5363 13.9407 50.9996 13.0508C50.4628 12.161 50.1945 11.1511 50.1945 10.0212C50.1945 8.89124 50.4628 7.88136 50.9996 6.99153C51.5363 6.10169 52.2778 5.4096 53.2241 4.91525C54.1846 4.40678 55.2651 4.15254 56.4657 4.15254C57.6662 4.15254 58.7397 4.40678 59.686 4.91525C60.6323 5.4096 61.3739 6.10169 61.9106 6.99153C62.4473 7.88136 62.7157 8.89124 62.7157 10.0212C62.7157 11.1511 62.4473 12.161 61.9106 13.0508C61.3739 13.9407 60.6323 14.6398 59.686 15.1483C58.7397 15.6427 57.6662 15.8898 56.4657 15.8898ZM56.4657 13.178C57.3131 13.178 58.0052 12.8955 58.5419 12.3305C59.0928 11.7514 59.3682 10.9816 59.3682 10.0212C59.3682 9.06073 59.0928 8.29802 58.5419 7.73305C58.0052 7.15396 57.3131 6.86441 56.4657 6.86441C55.6182 6.86441 54.9191 7.15396 54.3682 7.73305C53.8174 8.29802 53.5419 9.06073 53.5419 10.0212C53.5419 10.9816 53.8174 11.7514 54.3682 12.3305C54.9191 12.8955 55.6182 13.178 56.4657 13.178Z" fill="#1877F2"/>
<path d="M71.8528 4.15254C73.2652 4.15254 74.4023 4.57627 75.2638 5.42373C76.1395 6.27119 76.5774 7.52825 76.5774 9.19491V15.7203H73.2723V9.70339C73.2723 8.79943 73.0746 8.12853 72.6791 7.69068C72.2836 7.2387 71.7116 7.01271 70.963 7.01271C70.1297 7.01271 69.4658 7.27401 68.9715 7.79661C68.4771 8.30508 68.2299 9.0678 68.2299 10.0847V15.7203H64.9249V4.32203H68.0816V5.65678C68.5195 5.17655 69.0633 4.80932 69.713 4.55509C70.3627 4.28672 71.076 4.15254 71.8528 4.15254Z" fill="#1877F2"/>
<path d="M91.4559 4.32203V13.8136C91.4559 15.904 90.9121 17.4576 89.8245 18.4746C88.737 19.4915 87.148 20 85.0576 20C83.9559 20 82.9107 19.8658 81.922 19.5975C80.9333 19.3291 80.1141 18.9407 79.4644 18.4322L80.7779 16.0593C81.2582 16.4548 81.8655 16.7655 82.6 16.9915C83.3344 17.2316 84.0689 17.3517 84.8034 17.3517C85.9474 17.3517 86.7878 17.0904 87.3245 16.5678C87.8754 16.0593 88.1508 15.2825 88.1508 14.2373V13.75C87.2892 14.6963 86.0887 15.1695 84.5491 15.1695C83.5039 15.1695 82.5435 14.9435 81.6678 14.4915C80.8062 14.0254 80.1212 13.3757 79.6127 12.5424C79.1042 11.709 78.85 10.7486 78.85 9.66102C78.85 8.57345 79.1042 7.61299 79.6127 6.77966C80.1212 5.94633 80.8062 5.30367 81.6678 4.8517C82.5435 4.38559 83.5039 4.15254 84.5491 4.15254C86.2017 4.15254 87.4587 4.69633 88.3203 5.7839V4.32203H91.4559ZM85.2059 12.4576C86.0816 12.4576 86.7949 12.2034 87.3457 11.6949C87.9107 11.1723 88.1932 10.4943 88.1932 9.66102C88.1932 8.82768 87.9107 8.15678 87.3457 7.6483C86.7949 7.12571 86.0816 6.86441 85.2059 6.86441C84.3302 6.86441 83.6099 7.12571 83.0449 7.6483C82.4799 8.15678 82.1974 8.82768 82.1974 9.66102C82.1974 10.4943 82.4799 11.1723 83.0449 11.6949C83.6099 12.2034 84.3302 12.4576 85.2059 12.4576Z" fill="#1877F2"/>
<path d="M98.3668 15.8898C97.4205 15.8898 96.4954 15.7768 95.5914 15.5508C94.6874 15.3107 93.9671 15.0141 93.4304 14.661L94.5321 12.2881C95.0405 12.613 95.655 12.8814 96.3753 13.0932C97.0956 13.291 97.8018 13.3898 98.4939 13.3898C99.8922 13.3898 100.591 13.0438 100.591 12.3517C100.591 12.0268 100.401 11.7938 100.019 11.6525C99.638 11.5113 99.0518 11.3912 98.2609 11.2924C97.3287 11.1511 96.5589 10.9887 95.9516 10.8051C95.3442 10.6215 94.8146 10.2966 94.3626 9.83051C93.9247 9.36441 93.7058 8.70056 93.7058 7.83898C93.7058 7.11864 93.9106 6.48305 94.3202 5.9322C94.7439 5.36723 95.3513 4.92938 96.1422 4.61864C96.9473 4.30791 97.8937 4.15254 98.9812 4.15254C99.7863 4.15254 100.584 4.24435 101.375 4.42797C102.18 4.59746 102.844 4.83757 103.367 5.1483L102.265 7.5C101.262 6.93503 100.168 6.65254 98.9812 6.65254C98.275 6.65254 97.7454 6.75141 97.3922 6.94915C97.0391 7.14689 96.8626 7.40113 96.8626 7.71186C96.8626 8.06497 97.0533 8.31215 97.4346 8.45339C97.816 8.59463 98.4233 8.72881 99.2567 8.85593C100.189 9.0113 100.952 9.18079 101.545 9.36441C102.138 9.5339 102.654 9.85169 103.091 10.3178C103.529 10.7839 103.748 11.4336 103.748 12.2669C103.748 12.9732 103.536 13.6017 103.113 14.1525C102.689 14.7034 102.067 15.1342 101.248 15.4449C100.443 15.7415 99.4826 15.8898 98.3668 15.8898Z" fill="#1877F2"/>
<path d="M110.385 4.15254C112.15 4.15254 113.506 4.57627 114.453 5.42373C115.399 6.25706 115.872 7.52119 115.872 9.2161V15.7203H112.779V14.3008C112.157 15.3602 110.999 15.8898 109.304 15.8898C108.429 15.8898 107.666 15.7415 107.016 15.4449C106.381 15.1483 105.893 14.7387 105.554 14.2161C105.215 13.6935 105.046 13.1003 105.046 12.4364C105.046 11.3771 105.441 10.5438 106.232 9.93644C107.037 9.3291 108.273 9.02542 109.94 9.02542H112.567C112.567 8.30508 112.348 7.75424 111.91 7.37288C111.472 6.9774 110.816 6.77966 109.94 6.77966C109.333 6.77966 108.732 6.87853 108.139 7.07627C107.56 7.25989 107.066 7.51412 106.656 7.83898L105.47 5.52966C106.091 5.09181 106.833 4.75282 107.694 4.51271C108.57 4.2726 109.467 4.15254 110.385 4.15254ZM110.131 13.6653C110.696 13.6653 111.197 13.5381 111.635 13.2839C112.073 13.0155 112.383 12.6271 112.567 12.1186V10.9534H110.3C108.944 10.9534 108.266 11.3983 108.266 12.2881C108.266 12.7119 108.429 13.0508 108.753 13.3051C109.092 13.5452 109.551 13.6653 110.131 13.6653Z" fill="#1877F2"/>
<path d="M125.791 4.15254C127.204 4.15254 128.341 4.57627 129.202 5.42373C130.078 6.27119 130.516 7.52825 130.516 9.19491V15.7203H127.211V9.70339C127.211 8.79943 127.013 8.12853 126.618 7.69068C126.222 7.2387 125.65 7.01271 124.902 7.01271C124.068 7.01271 123.404 7.27401 122.91 7.79661C122.416 8.30508 122.168 9.0678 122.168 10.0847V15.7203H118.863V4.32203H122.02V5.65678C122.458 5.17655 123.002 4.80932 123.652 4.55509C124.301 4.28672 125.015 4.15254 125.791 4.15254Z" fill="#1877F2"/>
<path d="M134.302 15.798C134.075 15.798 133.878 15.7151 133.712 15.5494C133.557 15.3837 133.479 15.1817 133.479 14.9435C133.479 14.7052 133.557 14.5084 133.712 14.3531C133.878 14.1873 134.075 14.1045 134.302 14.1045C134.53 14.1045 134.727 14.1873 134.893 14.3531C135.059 14.5084 135.141 14.7052 135.141 14.9435C135.141 15.1817 135.059 15.3837 134.893 15.5494C134.727 15.7151 134.53 15.798 134.302 15.798Z" fill="#3C4146"/>
<path d="M141.65 7.48584C142.675 7.48584 143.488 7.78621 144.089 8.38697C144.7 8.97736 145.006 9.84224 145.006 10.9816V15.7203H143.903V11.0904C143.903 10.241 143.69 9.59365 143.266 9.14827C142.841 8.70288 142.235 8.48019 141.448 8.48019C140.568 8.48019 139.868 8.74431 139.351 9.27256C138.843 9.79045 138.589 10.5103 138.589 11.4322V15.7203H137.486V7.54798H138.543V9.05505C138.843 8.55787 139.257 8.17463 139.786 7.90533C140.324 7.62567 140.946 7.48584 141.65 7.48584Z" fill="#3C4146"/>
<path d="M155.147 11.9759H148.311C148.373 12.8253 148.699 13.5141 149.29 14.0423C149.88 14.5602 150.626 14.8192 151.527 14.8192C152.034 14.8192 152.5 14.7311 152.925 14.555C153.35 14.3686 153.718 14.0993 154.028 13.7471L154.65 14.4618C154.287 14.8969 153.831 15.2283 153.282 15.4562C152.744 15.684 152.148 15.798 151.496 15.798C150.657 15.798 149.911 15.6219 149.258 15.2697C148.616 14.9072 148.114 14.41 147.751 13.7782C147.389 13.1464 147.208 12.4317 147.208 11.6341C147.208 10.8366 147.379 10.1219 147.72 9.49007C148.073 8.85825 148.549 8.36625 149.15 8.01409C149.761 7.66192 150.444 7.48584 151.201 7.48584C151.957 7.48584 152.635 7.66192 153.236 8.01409C153.837 8.36625 154.308 8.85825 154.65 9.49007C154.992 10.1115 155.162 10.8262 155.162 11.6341L155.147 11.9759ZM151.201 8.43358C150.413 8.43358 149.75 8.68734 149.212 9.19488C148.684 9.69205 148.383 10.3446 148.311 11.1525H154.106C154.033 10.3446 153.728 9.69205 153.189 9.19488C152.661 8.68734 151.998 8.43358 151.201 8.43358Z" fill="#3C4146"/>
<path d="M161.711 15.2231C161.504 15.4096 161.245 15.5546 160.935 15.6582C160.634 15.7514 160.318 15.798 159.987 15.798C159.22 15.798 158.63 15.5908 158.216 15.1765C157.801 14.7622 157.594 14.177 157.594 13.4209V8.48019H156.134V7.54798H157.594V5.76126H158.697V7.54798H161.183V8.48019H158.697V13.3587C158.697 13.8455 158.816 14.2184 159.055 14.4774C159.303 14.7259 159.655 14.8502 160.111 14.8502C160.339 14.8502 160.557 14.814 160.764 14.7415C160.981 14.669 161.168 14.5654 161.323 14.4308L161.711 15.2231Z" fill="#3C4146"/>
</svg>
